<svg xmlns="http://www.w3.org/2000/svg" viewBox="0 0 177.78 100">
    <style>
        svg {
        }
    </style>

    <defs>
        <radialGradient id="gradiente_burbuja" cx="50%" cy="50%" r="50%">
            <stop offset="0%" stop-color="#ffdd76" />
            <stop offset="80%" stop-color="#ff9335" />
        </radialGradient>
    </defs>

    <circle cx="20" cy="30" r="7" fill="url(#gradiente_burbuja)" />
    <circle cx="25" cy="50" r="8" />
    <circle cx="7" cy="70" r="5" />
    <circle cx="50" cy="0" r="7" />
    <circle cx="40" cy="80" r="6" />
    <circle cx="60" cy="20" r="7" />
    <circle cx="80" cy="55" r="6" />
    <circle cx="65" cy="100" r="7" />
    <circle cx="95" cy="80" r="7" />
    <circle cx="100" cy="10" r="8" />
    <circle cx="115" cy="25" r="7" />
    <circle cx="100" cy="40" r="6" />
    <circle cx="120" cy="60" r="7" />
    <circle cx="140" cy="-5" r="7" />
    <circle cx="135" cy="90" r="6" />
    <circle cx="145" cy="15" r="7" />
    <circle cx="145" cy="15" r="7" />
    <circle cx="160" cy="35" r="6" />
    <circle cx="150" cy="46" r="5" />
    <circle cx="170" cy="70" r="4" />
    <circle cx="0" cy="0" r="8" />
    <circle cx="177.78" cy="100" r="8" />
</svg>